<?xml version="1.0" encoding="utf-8"?>
<!-- Generator: Adobe Illustrator 19.0.1, SVG Export Plug-In . SVG Version: 6.00 Build 0)  -->
<!DOCTYPE svg PUBLIC "-//W3C//DTD SVG 1.1//EN" "http://www.w3.org/Graphics/SVG/1.1/DTD/svg11.dtd">
<svg version="1.1" id="Calque_1" xmlns="http://www.w3.org/2000/svg" xmlns:xlink="http://www.w3.org/1999/xlink" x="0px" y="0px"
	 viewBox="0 0 37 37" enable-background="new 0 0 37 37" xml:space="preserve">
<g>
	<g>
		<path fill="#60C0C4" d="M36.5,30.3c0,3.5-2.8,6.2-6.2,6.2H6.7c-3.5,0-6.2-2.7-6.2-6.2V6.7c0-3.5,2.8-6.2,6.2-6.2h23.6
			c3.5,0,6.2,2.8,6.2,6.2V30.3z"/>
		<path fill="#24B4B7" d="M30.3,37H6.7C2.9,37,0,34.1,0,30.3V6.7C0,2.9,2.9,0,6.7,0h23.6C34.1,0,37,2.9,37,6.7v23.6
			C37,34.1,34.1,37,30.3,37z M6.7,1C3.5,1,1,3.5,1,6.7v23.6C1,33.5,3.5,36,6.7,36h23.6c3.2,0,5.7-2.5,5.7-5.7V6.7
			C36,3.5,33.5,1,30.3,1H6.7z"/>
	</g>
</g>
<g>
	<g>
		<path fill="#FFFFFF" d="M29.5,24.3c0,0.9-0.7,1.6-1.6,1.6H8.5c-0.9,0-1.6-0.7-1.6-1.6V9.6C6.9,8.7,7.6,8,8.5,8h19.4
			c0.9,0,1.6,0.7,1.6,1.6V24.3z"/>
		<path fill="#24B4B7" d="M27.9,26H8.5c-0.9,0-1.7-0.8-1.7-1.7V9.6c0-0.9,0.8-1.7,1.7-1.7h19.4c0.9,0,1.7,0.8,1.7,1.7v14.8
			C29.6,25.3,28.8,26,27.9,26z M8.5,8.1C7.7,8.1,7,8.8,7,9.6v14.8c0,0.8,0.6,1.4,1.4,1.4h19.4c0.8,0,1.4-0.6,1.4-1.4V9.6
			c0-0.8-0.6-1.4-1.4-1.4H8.5z"/>
	</g>
	<g>
		<line fill="#FFFFFF" x1="11.2" y1="29" x2="25.2" y2="29"/>
		<rect x="11.2" y="28.9" fill="#24B4B7" width="14" height="0.2"/>
	</g>
	<g>
		<polygon fill="#FFFFFF" points="21.7,29 14.7,29 15.8,25.9 20.5,25.9 		"/>
		<path fill="#24B4B7" d="M21.7,29.1h-7c0,0-0.1,0-0.1-0.1c0,0,0-0.1,0-0.1l1.2-3.1c0,0,0.1-0.1,0.1-0.1h4.7c0.1,0,0.1,0,0.1,0.1
			l1.2,3.1c0,0,0,0.1,0,0.1C21.8,29.1,21.7,29.1,21.7,29.1z M14.9,28.9h6.6L20.4,26h-4.5L14.9,28.9z"/>
	</g>
	<g>
		<rect x="9.2" y="10.3" fill="#FFFFFF" width="17.9" height="12.4"/>
		<path fill="#24B4B7" d="M27.1,22.9H9.2c-0.1,0-0.1-0.1-0.1-0.1V10.3c0-0.1,0.1-0.1,0.1-0.1h17.9c0.1,0,0.1,0.1,0.1,0.1v12.4
			C27.2,22.9,27.2,22.9,27.1,22.9z M9.4,22.7H27V10.5H9.4V22.7z"/>
	</g>
	<g>
		<circle fill="#FFFFFF" cx="18.2" cy="24.3" r="0.4"/>
		<path fill="#24B4B7" d="M18.2,24.9c-0.3,0-0.5-0.2-0.5-0.5c0-0.3,0.2-0.5,0.5-0.5c0.3,0,0.5,0.2,0.5,0.5
			C18.7,24.6,18.5,24.9,18.2,24.9z M18.2,24.1c-0.1,0-0.3,0.1-0.3,0.3s0.1,0.3,0.3,0.3s0.3-0.1,0.3-0.3S18.3,24.1,18.2,24.1z"/>
	</g>
</g>
<g>
	<path fill="#60C0C4" d="M14.1,19.8l3.1-2.8c0.4-0.3,0.6-0.8,0.6-1.2c0-0.4-0.1-0.8-0.4-1.1c-0.3-0.4-0.8-0.6-1.2-0.6
		c-0.4,0-0.8,0.1-1.1,0.4l-0.3,0.3c-0.1,0.1-0.2,0.1-0.3,0c-0.1-0.1-0.1-0.2,0-0.3l0.3-0.3c0.4-0.4,0.9-0.6,1.4-0.6
		c0.6,0,1.1,0.2,1.6,0.7c0.4,0.4,0.6,0.9,0.6,1.4c0,0.6-0.2,1.2-0.7,1.6l-2.6,2.4h3.1c0.1,0,0.2,0.1,0.2,0.2c0,0.1-0.1,0.2-0.2,0.2
		h-3.6h0c-0.1,0-0.1,0-0.2-0.1C14,20.1,14,19.9,14.1,19.8z"/>
	<path fill="#60C0C4" d="M20.6,14.4l-0.9,0.5c0,0-0.1,0-0.1,0c-0.1,0-0.2,0-0.2-0.1c-0.1-0.1,0-0.3,0.1-0.3l1.3-0.8
		c0.1-0.1,0.3,0,0.3,0.1c0,0.1,0,0.1,0,0.2v6c0,0.1-0.1,0.2-0.2,0.2c-0.1,0-0.2-0.1-0.2-0.2V14.4z"/>
</g>
</svg>
