<?xml version="1.0" encoding="utf-8"?>
<!-- Generator: Adobe Illustrator 19.0.1, SVG Export Plug-In . SVG Version: 6.00 Build 0)  -->
<!DOCTYPE svg PUBLIC "-//W3C//DTD SVG 1.1//EN" "http://www.w3.org/Graphics/SVG/1.1/DTD/svg11.dtd">
<svg version="1.1" id="Calque_1" xmlns="http://www.w3.org/2000/svg" xmlns:xlink="http://www.w3.org/1999/xlink" x="0px" y="0px"
	 viewBox="0 0 37 37" enable-background="new 0 0 37 37" xml:space="preserve">
<g>
	<g>
		<path fill="#60C0C4" d="M36.5,30.3c0,3.5-2.8,6.2-6.2,6.2H6.7c-3.5,0-6.2-2.7-6.2-6.2V6.7c0-3.5,2.8-6.2,6.2-6.2h23.6
			c3.5,0,6.2,2.8,6.2,6.2V30.3z"/>
		<path fill="#24B4B7" d="M30.3,37H6.7C2.9,37,0,34.1,0,30.3V6.7C0,2.9,2.9,0,6.7,0h23.6C34.1,0,37,2.9,37,6.7v23.6
			C37,34.1,34.1,37,30.3,37z M6.7,1C3.5,1,1,3.5,1,6.7v23.6C1,33.5,3.5,36,6.7,36h23.6c3.2,0,5.7-2.5,5.7-5.7V6.7
			C36,3.5,33.5,1,30.3,1H6.7z"/>
	</g>
</g>
<g>
	<g>
		<circle fill="#FFFFFF" cx="18.5" cy="18.5" r="10.7"/>
		<path fill="#24B4B7" d="M18.5,29.5c-6.1,0-11-4.9-11-11s4.9-11,11-11c6.1,0,11,4.9,11,11S24.6,29.5,18.5,29.5z M18.5,8
			C12.7,8,8,12.7,8,18.5C8,24.3,12.7,29,18.5,29S29,24.3,29,18.5C29,12.7,24.3,8,18.5,8z"/>
	</g>
	<g>
		<path fill="#FFFFFF" d="M25.5,19.6c0,3.7-3.1,6.8-7,6.8c-3.9,0-7-3.1-7-6.8H25.5z"/>
		<path fill="#24B4B7" d="M18.5,26.7c-3.9,0-7.3-3.2-7.3-7.1c0-0.1,0.1-0.2,0.2-0.2h14c0.1,0,0.2,0.1,0.2,0.2
			C25.8,23.5,22.4,26.7,18.5,26.7z M11.8,19.9c0.1,3.5,3.2,6.3,6.8,6.3c3.6,0,6.6-2.9,6.8-6.3H11.8z"/>
	</g>
	<g>
		<path fill="#FFFFFF" d="M16.3,14.8c0,1-1,1.8-2,1.8c-1,0-1.7-0.8-1.7-1.8"/>
		<path fill="#24B4B7" d="M14.3,16.9c-1.1,0-2-0.9-2-2.1h0.5c0,0.9,0.6,1.6,1.5,1.6c0.9,0,1.7-0.7,1.7-1.6h0.5
			C16.5,15.9,15.5,16.9,14.3,16.9z"/>
	</g>
	<g>
		<path fill="#FFFFFF" d="M20.7,14.8c0,1,0.9,1.8,2,1.8c1,0,1.7-0.8,1.7-1.8"/>
		<path fill="#24B4B7" d="M22.7,16.9c-1.2,0-2.2-1-2.2-2.1H21c0,0.9,0.8,1.6,1.7,1.6c0.9,0,1.5-0.7,1.5-1.6h0.5
			C24.7,16,23.9,16.9,22.7,16.9z"/>
	</g>
</g>
</svg>
