<?xml version="1.0" encoding="utf-8"?>
<!-- Generator: Adobe Illustrator 22.1.0, SVG Export Plug-In . SVG Version: 6.00 Build 0)  -->
<!DOCTYPE svg PUBLIC "-//W3C//DTD SVG 1.1//EN" "http://www.w3.org/Graphics/SVG/1.1/DTD/svg11.dtd">
<svg version="1.1" id="Calque_1" xmlns="http://www.w3.org/2000/svg" xmlns:xlink="http://www.w3.org/1999/xlink" x="0px" y="0px"
	 viewBox="0 0 50.9 62.4" style="enable-background:new 0 0 50.9 62.4;" xml:space="preserve">
<style type="text/css">
	.st0{fill:#EEACA4;}
	.st1{fill:#DD6B54;}
	.st2{fill:none;}
	.st3{fill:#FFFFFF;}
	.st4{fill:none;stroke:#DD6B54;stroke-linecap:round;stroke-linejoin:round;stroke-miterlimit:10;}
	.st5{fill:#FFFFFF;stroke:#DD6B54;stroke-linecap:round;stroke-linejoin:round;stroke-miterlimit:10;}
	.st6{fill:none;stroke:#DD6B54;stroke-width:0.5;stroke-linecap:round;stroke-linejoin:round;stroke-miterlimit:10;}
</style>
<g id="Calque_1_1_">
	<g>
		<g>
			<path class="st0" d="M1.5,1.4h47.9v18.3c0,16.6-9.2,31.9-24,39.7c-14.7-7.8-24-23-24-39.7L1.5,1.4L1.5,1.4z"/>
			<path class="st1" d="M25.5,60.9c-0.2,0-0.5-0.1-0.7-0.2C9.5,52.7,0,37,0,19.7V1.4c0-0.8,0.7-1.5,1.5-1.5h47.9
				c0.8,0,1.5,0.7,1.5,1.5v18.3c0,17.3-9.5,33-24.8,41C25.9,60.8,25.7,60.9,25.5,60.9z M3,2.9v16.8c0,15.9,8.6,30.4,22.5,38
				C39.4,50.1,48,35.6,48,19.7V2.9H3z"/>
		</g>
		<g>
			<line class="st2" x1="1.4" y1="9.4" x2="49.4" y2="9.4"/>
			<rect x="1.4" y="7.9" class="st1" width="48" height="3"/>
		</g>
	</g>
</g>
<g id="Calque_4">
	<polygon class="st3" points="15.9,24.5 15.9,28 15.3,28.8 15.4,32.6 16.7,33.9 17,35.5 19.5,37.8 19.4,40.6 17.8,43.3 23.7,47.9 
		25.2,45.3 25.9,46.3 27.5,45.1 28.2,48.1 34.1,43.5 32.7,40.7 32.8,37.8 34.9,35.6 35.1,33.3 36.3,32.6 36.7,28.9 36.7,27.7 
		35.9,26.6 35.1,20.1 29.1,16.2 20.8,17.8 16.5,22.4 	"/>
</g>
<g id="Calque_2_1_">
	<path class="st4" d="M16.7,25.7v7.1c0,0-0.2,2.5,0.9,3.6s4.7,4.6,4.7,4.6"/>
	<path class="st4" d="M35.1,25.7v7.1c0,0,0.2,2.5-0.9,3.6S29.5,41,29.5,41"/>
	<path class="st4" d="M22.2,40.2c0,0,0.3,2,1.9,2s3.8,0,3.8,0s1.6-0.2,1.6-2"/>
	<path class="st4" d="M21.2,21.9c0,0,1-0.1,1.8,0.2s1.9,0.8,3,0.8s2.7-1,3.6-1s1.4,0,1.4,0"/>
	<path class="st4" d="M21.2,23.5c0,0,1-0.1,1.8,0.2s1.9,0.8,3,0.8s2.7-1,3.6-1s1.4,0,1.4,0"/>
	<path class="st5" d="M31,18.4c0,0-0.4,1.7-7.4,1.7c0,0-3.8-0.3-4.5,0.3s-2.2,1.1-2.2,5.8v1.9c0,0-3.2-1.2-2.7-5.6l1-0.1
		c0,0,1-8.6,8.5-8.6s8.2,2.9,8.2,2.9s3.7-0.3,4.2,3.7s0.2,5.1-1,7.2C35.1,27.6,35.7,22.4,31,18.4z"/>
	<path class="st4" d="M21.9,35.2c0,0,0.1,0.7,1.1,0.7s2.9,0,2.9,0h3c0,0,1.1,0,1.1-0.7"/>
	<path class="st4" d="M24.6,38.1c0,0,0.6-0.6,1.4-0.6s1.4,0.6,1.4,0.6"/>
	<path class="st4" d="M19.1,34.3c0,0-0.3,2.5,1.3,3.4"/>
	<path class="st4" d="M32.7,34.3c0,0,0.3,2.5-1.3,3.4"/>
	<path class="st4" d="M28.4,25.7H32c0,0,1.3-0.3,1.8,0.8"/>
	<path class="st4" d="M23.5,25.7h-3.8c0,0-1.2-0.1-1.6,0.9"/>
	<path class="st4" d="M24,31.7c0,0-0.9,0-0.9,0.7c0,0.7,0.1,1.1,0.9,1.1s0.9,0.8,2,0.8s1.2-1,1.8-1s1.4-1.7,0-1.6"/>
	<path class="st4" d="M20.4,35.5c0,0-0.1-1.4,0.8-1.8s1.9,0,2-0.9"/>
	<path class="st4" d="M28.7,32.6c0,0,0.3,0.7,0.9,0.8s2,0.3,1.7,1.9"/>
	<path class="st4" d="M24.4,26.4c0,0,0.7,0.5,0.6,1.1s-0.4,1-0.3,1.5s0.3,1.7,0.1,1.8"/>
	<path class="st4" d="M27.5,26.4c0,0-0.7,0.5-0.6,1.1s0.4,1,0.3,1.5s-0.3,1.7-0.1,1.8"/>
	<path class="st4" d="M21.2,26.7l-1.4,0.2c0,0-1.3,0.1-1.4,0.9s0.1,1.9,0.8,2s3.4,0,3.4,0s1,0.1,1.2-0.5s1-2.5-0.2-2.6
		S21.2,26.7,21.2,26.7z"/>
	<path class="st4" d="M30.4,26.7l1.4,0.2c0,0,1.3,0.1,1.4,0.9s-0.1,1.9-0.8,2s-3.4,0-3.4,0s-1,0.1-1.2-0.5s-1-2.5,0.2-2.6
		S30.4,26.7,30.4,26.7z"/>
	<path class="st4" d="M35.1,27.6c0,0,1.6-0.5,1.6,0.7s0,3.4,0,3.4s-0.1,1.4-1.6,1.6"/>
	<path class="st4" d="M16.5,33.4c-1.1,0-1.2-1.5-1.2-1.5s0-2.1,0-3.1s1.2-0.7,1.2-0.7"/>
	<path class="st4" d="M24.1,27.8c0,0,2.1,0,3.5,0"/>
	<path class="st6" d="M29.1,28c0,0,0.9-1,2.9,0"/>
	<path class="st6" d="M29.5,28.9c0,0,0.6,0.6,1.8,0.2"/>
	<path class="st6" d="M19.8,28.1c0,0,1.5-1.2,3-0.1"/>
	<path class="st6" d="M20.4,29c0,0,0.6,0.7,1.7,0.2"/>
	<circle class="st1" cx="30.4" cy="28.1" r="0.8"/>
	<circle class="st1" cx="21.3" cy="28.2" r="0.8"/>
	<path class="st6" d="M33.3,27.7c0,0,1.1-0.2,1.7,0"/>
	<path class="st6" d="M33.3,28.4c0,0,1.5-0.1,1.6,0.6"/>
	<path class="st6" d="M33.3,29.2c0,0,0.6,0.6,0.6,1.1"/>
	<path class="st6" d="M18.8,29.4c0,0-0.8,0.8-0.9,1.4"/>
	<path class="st6" d="M18.2,28.4c0,0-0.9,0.4-0.9,0.7"/>
	<line class="st6" x1="17.9" y1="27.6" x2="16.9" y2="27.8"/>
	<polyline class="st4" points="19.4,38.2 19.4,40.6 24.6,44.5 25.9,46.3 27.3,44.5 32.7,40.7 32.8,37.8 	"/>
	<path class="st4" d="M23.7,47.9c0-0.1,1.2-3,1.2-3l-5.5-4.3l-1.8,3L23.7,47.9z"/>
	<polygon class="st4" points="27.3,44.5 28.2,48.1 34.1,43.5 32.7,40.7 	"/>
</g>
</svg>
